<svg width="40" height="41" viewBox="0 0 40 41" fill="none" xmlns="http://www.w3.org/2000/svg">
<path d="M40 8.75333C39.7162 9.98967 39.0928 11.1222 38.2 12.0233L19.31 30.905C18.3834 31.8364 17.2813 32.5749 16.0675 33.0775C14.8536 33.5802 13.5521 33.8371 12.2383 33.8333H10C9.11594 33.8333 8.2681 33.4821 7.64298 32.857C7.01786 32.2319 6.66667 31.3841 6.66667 30.5V28.2617C6.66302 26.948 6.92012 25.6466 7.42307 24.433C7.92602 23.2194 8.66483 22.1177 9.59667 21.1917L28.4767 2.31C29.3711 1.4159 30.4972 0.789065 31.7283 0.5C31.7067 0.5 31.6883 0.5 31.6667 0.5H8.33333C6.12401 0.502646 4.00593 1.38147 2.4437 2.9437C0.88147 4.50593 0.00264643 6.62401 0 8.83333L0 32.1667C0.00264643 34.376 0.88147 36.4941 2.4437 38.0563C4.00593 39.6185 6.12401 40.4974 8.33333 40.5H26.6667V32.1667C26.6667 30.8406 27.1934 29.5688 28.1311 28.6311C29.0688 27.6934 30.3406 27.1667 31.6667 27.1667H40V8.83333C40 8.80667 40 8.78167 40 8.75333Z" fill="#FFCB4C"/>
</svg>
