<svg width="40" height="41" viewBox="0 0 40 41" fill="none" xmlns="http://www.w3.org/2000/svg">
<path d="M39.6367 20.7882C39.2996 21.7534 38.7493 22.6301 38.0267 23.3532L22.86 38.5199C22.1361 39.2354 21.259 39.7768 20.295 40.1032C20.0282 38.5335 19.9811 36.9343 20.155 35.3516C20.5899 31.6002 22.2797 28.1059 24.9502 25.4356C27.6207 22.7654 31.1152 21.076 34.8667 20.6416C36.4557 20.4672 38.0613 20.5165 39.6367 20.7882ZM16.8333 34.9999C17.3535 30.494 19.382 26.2965 22.5893 23.0892C25.7966 19.8819 29.9941 17.8534 34.5 17.3332C36.2913 17.1411 38.1001 17.1848 39.88 17.4632C39.3093 13.8051 37.7372 10.3763 35.3379 7.55667C32.9385 4.73701 29.8055 2.63651 26.2858 1.48781C22.7662 0.339117 18.9972 0.187058 15.3965 1.04848C11.7957 1.9099 8.50366 3.75118 5.88494 6.36838C3.26621 8.98559 1.42301 12.2766 0.559498 15.8768C-0.304018 19.4771 -0.154152 23.2461 0.992497 26.7664C2.13915 30.2867 4.23782 33.421 7.05609 35.822C9.87435 38.223 13.3022 39.7971 16.96 40.3699C16.6825 38.5932 16.64 36.7877 16.8333 34.9999Z" fill="#FFCB4C"/>
</svg>
