<svg width="20" height="20" viewBox="0 0 20 20" fill="none" xmlns="http://www.w3.org/2000/svg">
<path d="M18.9519 1.04736C17.5543 -0.350157 15.2885 -0.350088 13.8911 1.04751L1.94103 12.999C1.5347 13.4054 1.2491 13.9165 1.116 14.4756L0.0204088 19.077C-0.0399112 19.3304 0.0355188 19.5969 0.219679 19.7811C0.403849 19.9652 0.670369 20.0407 0.923729 19.9803L5.52498 18.8848C6.08418 18.7516 6.59546 18.4659 7.00191 18.0594L18.952 6.10788C20.3493 4.71039 20.3493 2.44477 18.9519 1.04736ZM14.9518 2.10811C15.7634 1.29635 17.0795 1.29631 17.8912 2.10802C18.7028 2.91967 18.7029 4.23559 17.8913 5.04728L17 5.93872L14.0606 2.99939L14.9518 2.10811ZM13 4.06011L15.9394 6.99945L5.94119 16.9988C5.73104 17.209 5.46668 17.3567 5.17755 17.4256L1.76191 18.2388L2.57521 14.823C2.64402 14.534 2.79168 14.2697 3.00175 14.0596L13 4.06011Z" fill="white"/>
</svg>
